<?xml version="1.0" standalone="yes"?>

<svg version="1.1" viewBox="0.0 0.0 311.06299212598424 311.3989501312336" fill="none" stroke="none" stroke-linecap="square" stroke-miterlimit="10" xmlns="http://www.w3.org/2000/svg" xmlns:xlink="http://www.w3.org/1999/xlink"><clipPath id="p.0"><path d="m0 0l311.063 0l0 311.39896l-311.063 0l0 -311.39896z" clip-rule="nonzero"></path></clipPath><g clip-path="url(#p.0)"><path fill="#000000" fill-opacity="0.0" d="m0 0l311.063 0l0 311.39896l-311.063 0z" fill-rule="evenodd"></path><path fill="#ffffff" d="m104.71446 48.432686l0 0c0 -5.009701 4.061165 -9.070866 9.070862 -9.070866l0 0c2.4057465 0 4.7129517 0.95567703 6.41407 2.6567955c1.7011185 1.7011185 2.6567993 4.0083275 2.6567993 6.41407l0 0c0 5.009701 -4.061165 9.070866 -9.070869 9.070866l0 0c-5.009697 0 -9.070862 -4.061165 -9.070862 -9.070866z" fill-rule="evenodd"></path><path stroke="#ffffff" stroke-width="2.0" stroke-linejoin="round" stroke-linecap="butt" d="m104.71446 48.432686l0 0c0 -5.009701 4.061165 -9.070866 9.070862 -9.070866l0 0c2.4057465 0 4.7129517 0.95567703 6.41407 2.6567955c1.7011185 1.7011185 2.6567993 4.0083275 2.6567993 6.41407l0 0c0 5.009701 -4.061165 9.070866 -9.070869 9.070866l0 0c-5.009697 0 -9.070862 -4.061165 -9.070862 -9.070866z" fill-rule="evenodd"></path><path fill="#ffffff" d="m147.96025 46.34197l0 0c0 -5.009701 4.061157 -9.070866 9.070862 -9.070866l0 0c2.4057465 0 4.7129517 0.95567703 6.4140625 2.6567955c1.7011261 1.7011185 2.6567993 4.0083275 2.6567993 6.41407l0 0c0 5.009701 -4.061157 9.070866 -9.070862 9.070866l0 0c-5.0097046 0 -9.070862 -4.061165 -9.070862 -9.070866z" fill-rule="evenodd"></path><path stroke="#ffffff" stroke-width="2.0" stroke-linejoin="round" stroke-linecap="butt" d="m147.96025 46.34197l0 0c0 -5.009701 4.061157 -9.070866 9.070862 -9.070866l0 0c2.4057465 0 4.7129517 0.95567703 6.4140625 2.6567955c1.7011261 1.7011185 2.6567993 4.0083275 2.6567993 6.41407l0 0c0 5.009701 -4.061157 9.070866 -9.070862 9.070866l0 0c-5.0097046 0 -9.070862 -4.061165 -9.070862 -9.070866z" fill-rule="evenodd"></path><path fill="#ffffff" d="m178.6508 41.461185l0 0c0 -5.009701 4.061157 -9.070866 9.070862 -9.070866l0 0c2.4057465 0 4.7129517 0.95567703 6.4140778 2.6567955c1.7011108 1.7011185 2.656784 4.0083275 2.656784 6.41407l0 0c0 5.009701 -4.061157 9.070866 -9.070862 9.070866l0 0c-5.0097046 0 -9.070862 -4.061165 -9.070862 -9.070866z" fill-rule="evenodd"></path><path stroke="#ffffff" stroke-width="2.0" stroke-linejoin="round" stroke-linecap="butt" d="m178.6508 41.461185l0 0c0 -5.009701 4.061157 -9.070866 9.070862 -9.070866l0 0c2.4057465 0 4.7129517 0.95567703 6.4140778 2.6567955c1.7011108 1.7011185 2.656784 4.0083275 2.656784 6.41407l0 0c0 5.009701 -4.061157 9.070866 -9.070862 9.070866l0 0c-5.0097046 0 -9.070862 -4.061165 -9.070862 -9.070866z" fill-rule="evenodd"></path><path fill="#ffffff" d="m210.73639 63.781704l0 0c0 -5.009701 4.061157 -9.070866 9.070862 -9.070866l0 0c2.4057465 0 4.7129517 0.95567703 6.4140625 2.6567955c1.7011261 1.7011147 2.6567993 4.0083275 2.6567993 6.41407l0 0c0 5.009701 -4.061157 9.070866 -9.070862 9.070866l0 0c-5.0097046 0 -9.070862 -4.061165 -9.070862 -9.070866z" fill-rule="evenodd"></path><path stroke="#ffffff" stroke-width="2.0" stroke-linejoin="round" stroke-linecap="butt" d="m210.73639 63.781704l0 0c0 -5.009701 4.061157 -9.070866 9.070862 -9.070866l0 0c2.4057465 0 4.7129517 0.95567703 6.4140625 2.6567955c1.7011261 1.7011147 2.6567993 4.0083275 2.6567993 6.41407l0 0c0 5.009701 -4.061157 9.070866 -9.070862 9.070866l0 0c-5.0097046 0 -9.070862 -4.061165 -9.070862 -9.070866z" fill-rule="evenodd"></path><path fill="#ffffff" d="m233.0568 94.47241l0 0c0 -5.009697 4.061157 -9.070862 9.070862 -9.070862l0 0c2.4057465 0 4.7129517 0.9556732 6.4140625 2.6567917c1.7011261 1.7011185 2.6567993 4.0083313 2.6567993 6.41407l0 0c0 5.0097046 -4.061157 9.070869 -9.070862 9.070869l0 0c-5.0097046 0 -9.070862 -4.061165 -9.070862 -9.070869z" fill-rule="evenodd"></path><path stroke="#ffffff" stroke-width="2.0" stroke-linejoin="round" stroke-linecap="butt" d="m233.0568 94.47241l0 0c0 -5.009697 4.061157 -9.070862 9.070862 -9.070862l0 0c2.4057465 0 4.7129517 0.9556732 6.4140625 2.6567917c1.7011261 1.7011185 2.6567993 4.0083313 2.6567993 6.41407l0 0c0 5.0097046 -4.061157 9.070869 -9.070862 9.070869l0 0c-5.0097046 0 -9.070862 -4.061165 -9.070862 -9.070869z" fill-rule="evenodd"></path><path fill="#ffffff" d="m200.27553 102.842606l0 0c0 -5.009697 4.061157 -9.070862 9.070862 -9.070862l0 0c2.4057465 0 4.7129517 0.95568085 6.4140778 2.6567917c1.7011108 1.7011185 2.656784 4.0083313 2.656784 6.41407l0 0c0 5.0097046 -4.061157 9.070869 -9.070862 9.070869l0 0c-5.0097046 0 -9.070862 -4.061165 -9.070862 -9.070869z" fill-rule="evenodd"></path><path stroke="#ffffff" stroke-width="2.0" stroke-linejoin="round" stroke-linecap="butt" d="m200.27553 102.842606l0 0c0 -5.009697 4.061157 -9.070862 9.070862 -9.070862l0 0c2.4057465 0 4.7129517 0.95568085 6.4140778 2.6567917c1.7011108 1.7011185 2.656784 4.0083313 2.656784 6.41407l0 0c0 5.0097046 -4.061157 9.070869 -9.070862 9.070869l0 0c-5.0097046 0 -9.070862 -4.061165 -9.070862 -9.070869z" fill-rule="evenodd"></path><path fill="#ffffff" d="m180.74516 71.45255l0 0c0 -5.0097046 4.0611725 -9.070869 9.070877 -9.070869l0 0c2.4057312 0 4.7129517 0.95568085 6.4140625 2.6567993c1.7011261 1.7011108 2.6567993 4.0083237 2.6567993 6.41407l0 0c0 5.009697 -4.0611725 9.070862 -9.070862 9.070862l0 0c-5.0097046 0 -9.070877 -4.061165 -9.070877 -9.070862z" fill-rule="evenodd"></path><path stroke="#ffffff" stroke-width="2.0" stroke-linejoin="round" stroke-linecap="butt" d="m180.74516 71.45255l0 0c0 -5.0097046 4.0611725 -9.070869 9.070877 -9.070869l0 0c2.4057312 0 4.7129517 0.95568085 6.4140625 2.6567993c1.7011261 1.7011108 2.6567993 4.0083237 2.6567993 6.41407l0 0c0 5.009697 -4.0611725 9.070862 -9.070862 9.070862l0 0c-5.0097046 0 -9.070877 -4.061165 -9.070877 -9.070862z" fill-rule="evenodd"></path><path fill="#ffffff" d="m125.63984 70.75687l0 0c0 -5.0097046 4.061165 -9.070866 9.070869 -9.070866l0 0c2.4057465 0 4.7129517 0.95567703 6.4140625 2.6567955c1.7011261 1.7011185 2.6567993 4.0083237 2.6567993 6.41407l0 0c0 5.009697 -4.061157 9.070862 -9.070862 9.070862l0 0c-5.0097046 0 -9.070869 -4.061165 -9.070869 -9.070862z" fill-rule="evenodd"></path><path stroke="#ffffff" stroke-width="2.0" stroke-linejoin="round" stroke-linecap="butt" d="m125.63984 70.75687l0 0c0 -5.0097046 4.061165 -9.070866 9.070869 -9.070866l0 0c2.4057465 0 4.7129517 0.95567703 6.4140625 2.6567955c1.7011261 1.7011185 2.6567993 4.0083237 2.6567993 6.41407l0 0c0 5.009697 -4.061157 9.070862 -9.070862 9.070862l0 0c-5.0097046 0 -9.070869 -4.061165 -9.070869 -9.070862z" fill-rule="evenodd"></path><path fill="#ffffff" d="m111.68958 102.14693l0 0c0 -5.0097046 4.061165 -9.070869 9.070869 -9.070869l0 0c2.4057465 0 4.7129517 0.95568085 6.41407 2.6567917c1.7011185 1.7011185 2.6567917 4.0083313 2.6567917 6.4140778l0 0c0 5.009697 -4.061165 9.070862 -9.070862 9.070862l0 0c-5.0097046 0 -9.070869 -4.061165 -9.070869 -9.070862z" fill-rule="evenodd"></path><path stroke="#ffffff" stroke-width="2.0" stroke-linejoin="round" stroke-linecap="butt" d="m111.68958 102.14693l0 0c0 -5.0097046 4.061165 -9.070869 9.070869 -9.070869l0 0c2.4057465 0 4.7129517 0.95568085 6.41407 2.6567917c1.7011185 1.7011185 2.6567917 4.0083313 2.6567917 6.4140778l0 0c0 5.009697 -4.061165 9.070862 -9.070862 9.070862l0 0c-5.0097046 0 -9.070869 -4.061165 -9.070869 -9.070862z" fill-rule="evenodd"></path><path fill="#ffffff" d="m76.81396 91.68235l0 0c0 -5.0097046 4.061165 -9.070869 9.070862 -9.070869l0 0c2.4057465 0 4.7129517 0.95568085 6.41407 2.6567993c1.7011185 1.7011185 2.6567993 4.0083237 2.6567993 6.41407l0 0c0 5.0097046 -4.061165 9.070869 -9.070869 9.070869l0 0c-5.009697 0 -9.070862 -4.061165 -9.070862 -9.070869z" fill-rule="evenodd"></path><path stroke="#ffffff" stroke-width="2.0" stroke-linejoin="round" stroke-linecap="butt" d="m76.81396 91.68235l0 0c0 -5.0097046 4.061165 -9.070869 9.070862 -9.070869l0 0c2.4057465 0 4.7129517 0.95568085 6.41407 2.6567993c1.7011185 1.7011185 2.6567993 4.0083237 2.6567993 6.41407l0 0c0 5.0097046 -4.061165 9.070869 -9.070869 9.070869l0 0c-5.009697 0 -9.070862 -4.061165 -9.070862 -9.070869z" fill-rule="evenodd"></path><path fill="#ffffff" d="m104.018776 146.7843l0 0c0 -5.0097046 4.061165 -9.070877 9.070869 -9.070877l0 0c2.4057388 0 4.7129517 0.9556885 6.41407 2.6567993c1.7011185 1.7011261 2.6567917 4.0083313 2.6567917 6.4140778l0 0c0 5.0096893 -4.061165 9.070862 -9.070862 9.070862l0 0c-5.0097046 0 -9.070869 -4.0611725 -9.070869 -9.070862z" fill-rule="evenodd"></path><path stroke="#ffffff" stroke-width="2.0" stroke-linejoin="round" stroke-linecap="butt" d="m104.018776 146.7843l0 0c0 -5.0097046 4.061165 -9.070877 9.070869 -9.070877l0 0c2.4057388 0 4.7129517 0.9556885 6.41407 2.6567993c1.7011185 1.7011261 2.6567917 4.0083313 2.6567917 6.4140778l0 0c0 5.0096893 -4.061165 9.070862 -9.070862 9.070862l0 0c-5.0097046 0 -9.070869 -4.0611725 -9.070869 -9.070862z" fill-rule="evenodd"></path><path fill="#ffffff" d="m70.53817 127.253845l0 0c0 -5.0097046 4.061165 -9.070869 9.070869 -9.070869l0 0c2.4057388 0 4.7129517 0.95568085 6.41407 2.6567993c1.7011185 1.7011185 2.6567917 4.0083237 2.6567917 6.41407l0 0c0 5.0097046 -4.061165 9.070862 -9.070862 9.070862l0 0c-5.0097046 0 -9.070869 -4.061157 -9.070869 -9.070862z" fill-rule="evenodd"></path><path stroke="#ffffff" stroke-width="2.0" stroke-linejoin="round" stroke-linecap="butt" d="m70.53817 127.253845l0 0c0 -5.0097046 4.061165 -9.070869 9.070869 -9.070869l0 0c2.4057388 0 4.7129517 0.95568085 6.41407 2.6567993c1.7011185 1.7011185 2.6567917 4.0083237 2.6567917 6.41407l0 0c0 5.0097046 -4.061165 9.070862 -9.070862 9.070862l0 0c-5.0097046 0 -9.070869 -4.061157 -9.070869 -9.070862z" fill-rule="evenodd"></path><path fill="#ffffff" d="m69.83883 166.31474l0 0c0 -5.0096893 4.061165 -9.070862 9.070862 -9.070862l0 0c2.4057465 0 4.7129593 0.9556732 6.41407 2.6567993c1.7011185 1.7011108 2.6567993 4.0083313 2.6567993 6.4140625l0 0c0 5.0097046 -4.061165 9.070877 -9.070869 9.070877l0 0c-5.009697 0 -9.070862 -4.0611725 -9.070862 -9.070877z" fill-rule="evenodd"></path><path stroke="#ffffff" stroke-width="2.0" stroke-linejoin="round" stroke-linecap="butt" d="m69.83883 166.31474l0 0c0 -5.0096893 4.061165 -9.070862 9.070862 -9.070862l0 0c2.4057465 0 4.7129593 0.9556732 6.41407 2.6567993c1.7011185 1.7011108 2.6567993 4.0083313 2.6567993 6.4140625l0 0c0 5.0097046 -4.061165 9.070877 -9.070869 9.070877l0 0c-5.009697 0 -9.070862 -4.0611725 -9.070862 -9.070877z" fill-rule="evenodd"></path><path fill="#ffffff" d="m106.80883 192.82036l0 0c0 -5.0096893 4.061165 -9.070862 9.070862 -9.070862l0 0c2.4057465 0 4.7129593 0.9556732 6.41407 2.6567993c1.7011185 1.7011108 2.6567993 4.0083313 2.6567993 6.4140625l0 0c0 5.0097046 -4.061165 9.070877 -9.070869 9.070877l0 0c-5.009697 0 -9.070862 -4.0611725 -9.070862 -9.070877z" fill-rule="evenodd"></path><path stroke="#ffffff" stroke-width="2.0" stroke-linejoin="round" stroke-linecap="butt" d="m106.80883 192.82036l0 0c0 -5.0096893 4.061165 -9.070862 9.070862 -9.070862l0 0c2.4057465 0 4.7129593 0.9556732 6.41407 2.6567993c1.7011185 1.7011108 2.6567993 4.0083313 2.6567993 6.4140625l0 0c0 5.0097046 -4.061165 9.070877 -9.070869 9.070877l0 0c-5.009697 0 -9.070862 -4.0611725 -9.070862 -9.070877z" fill-rule="evenodd"></path><path fill="#ffffff" d="m76.11827 206.77069l0 0c0 -5.0097046 4.061165 -9.070862 9.070869 -9.070862l0 0c2.4057388 0 4.7129517 0.9556732 6.41407 2.656784c1.7011185 1.7011261 2.6567917 4.0083313 2.6567917 6.4140778l0 0c0 5.0097046 -4.061165 9.070862 -9.070862 9.070862l0 0c-5.0097046 0 -9.070869 -4.061157 -9.070869 -9.070862z" fill-rule="evenodd"></path><path stroke="#ffffff" stroke-width="2.0" stroke-linejoin="round" stroke-linecap="butt" d="m76.11827 206.77069l0 0c0 -5.0097046 4.061165 -9.070862 9.070869 -9.070862l0 0c2.4057388 0 4.7129517 0.9556732 6.41407 2.656784c1.7011185 1.7011261 2.6567917 4.0083313 2.6567917 6.4140778l0 0c0 5.0097046 -4.061165 9.070862 -9.070862 9.070862l0 0c-5.0097046 0 -9.070869 -4.061157 -9.070869 -9.070862z" fill-rule="evenodd"></path><path fill="#ffffff" d="m117.96903 237.4614l0 0c0 -5.0097046 4.061165 -9.070862 9.070862 -9.070862l0 0c2.4057388 0 4.7129593 0.9556732 6.41407 2.6567993c1.7011261 1.7011108 2.6567993 4.008316 2.6567993 6.4140625l0 0c0 5.0097046 -4.0611725 9.070877 -9.070869 9.070877l0 0c-5.009697 0 -9.070862 -4.0611725 -9.070862 -9.070877z" fill-rule="evenodd"></path><path stroke="#ffffff" stroke-width="2.0" stroke-linejoin="round" stroke-linecap="butt" d="m117.96903 237.4614l0 0c0 -5.0097046 4.061165 -9.070862 9.070862 -9.070862l0 0c2.4057388 0 4.7129593 0.9556732 6.41407 2.6567993c1.7011261 1.7011108 2.6567993 4.008316 2.6567993 6.4140625l0 0c0 5.0097046 -4.0611725 9.070877 -9.070869 9.070877l0 0c-5.009697 0 -9.070862 -4.0611725 -9.070862 -9.070877z" fill-rule="evenodd"></path><path fill="#ffffff" d="m89.37284 248.62166l0 0c0 -5.0097046 4.061165 -9.070862 9.070869 -9.070862l0 0c2.4057388 0 4.7129517 0.9556732 6.41407 2.656784c1.7011185 1.7011261 2.6567917 4.0083313 2.6567917 6.4140778l0 0c0 5.0097046 -4.061165 9.070877 -9.070862 9.070877l0 0c-5.0097046 0 -9.070869 -4.0611725 -9.070869 -9.070877z" fill-rule="evenodd"></path><path stroke="#ffffff" stroke-width="2.0" stroke-linejoin="round" stroke-linecap="butt" d="m89.37284 248.62166l0 0c0 -5.0097046 4.061165 -9.070862 9.070869 -9.070862l0 0c2.4057388 0 4.7129517 0.9556732 6.41407 2.656784c1.7011185 1.7011261 2.6567917 4.0083313 2.6567917 6.4140778l0 0c0 5.0097046 -4.061165 9.070877 -9.070862 9.070877l0 0c-5.0097046 0 -9.070869 -4.0611725 -9.070869 -9.070877z" fill-rule="evenodd"></path><path fill="#ffffff" d="m125.6435 273.03656l0 0c0 -5.0097046 4.061165 -9.070862 9.070869 -9.070862l0 0c2.4057465 0 4.7129517 0.95565796 6.4140625 2.6567993c1.7011261 1.7011108 2.6567993 4.008301 2.6567993 6.4140625l0 0c0 5.0097046 -4.0611725 9.070862 -9.070862 9.070862l0 0c-5.0097046 0 -9.070869 -4.061157 -9.070869 -9.070862z" fill-rule="evenodd"></path><path stroke="#ffffff" stroke-width="2.0" stroke-linejoin="round" stroke-linecap="butt" d="m125.6435 273.03656l0 0c0 -5.0097046 4.061165 -9.070862 9.070869 -9.070862l0 0c2.4057465 0 4.7129517 0.95565796 6.4140625 2.6567993c1.7011261 1.7011108 2.6567993 4.008301 2.6567993 6.4140625l0 0c0 5.0097046 -4.0611725 9.070862 -9.070862 9.070862l0 0c-5.0097046 0 -9.070869 -4.061157 -9.070869 -9.070862z" fill-rule="evenodd"></path><path fill="#ffffff" d="m153.54266 246.14644l0 0c0 -5.0096893 4.0611725 -9.070862 9.070877 -9.070862l0 0c2.4057312 0 4.7129517 0.9556732 6.4140625 2.6567993c1.7011261 1.7011108 2.6567993 4.0083313 2.6567993 6.4140625l0 0c0 5.0097046 -4.0611725 9.070877 -9.070862 9.070877l0 0c-5.0097046 0 -9.070877 -4.0611725 -9.070877 -9.070877z" fill-rule="evenodd"></path><path stroke="#ffffff" stroke-width="2.0" stroke-linejoin="round" stroke-linecap="butt" d="m153.54266 246.14644l0 0c0 -5.0096893 4.0611725 -9.070862 9.070877 -9.070862l0 0c2.4057312 0 4.7129517 0.9556732 6.4140625 2.6567993c1.7011261 1.7011108 2.6567993 4.0083313 2.6567993 6.4140625l0 0c0 5.0097046 -4.0611725 9.070877 -9.070862 9.070877l0 0c-5.0097046 0 -9.070877 -4.0611725 -9.070877 -9.070877z" fill-rule="evenodd"></path><path fill="#ffffff" d="m168.06116 271.81345l0 0c0 -5.0097046 4.0611725 -9.070862 9.070877 -9.070862l0 0c2.4057465 0 4.7129517 0.9556885 6.4140625 2.6567993c1.7011261 1.7011108 2.6567993 4.0083313 2.6567993 6.4140625l0 0c0 5.0097046 -4.0611725 9.070892 -9.070862 9.070892l0 0c-5.0097046 0 -9.070877 -4.0611877 -9.070877 -9.070892z" fill-rule="evenodd"></path><path stroke="#ffffff" stroke-width="2.0" stroke-linejoin="round" stroke-linecap="butt" d="m168.06116 271.81345l0 0c0 -5.0097046 4.0611725 -9.070862 9.070877 -9.070862l0 0c2.4057465 0 4.7129517 0.9556885 6.4140625 2.6567993c1.7011261 1.7011108 2.6567993 4.0083313 2.6567993 6.4140625l0 0c0 5.0097046 -4.0611725 9.070892 -9.070862 9.070892l0 0c-5.0097046 0 -9.070877 -4.0611877 -9.070877 -9.070892z" fill-rule="evenodd"></path><path fill="#ffffff" d="m203.06557 264.66635l0 0c0 -5.0097046 4.0611725 -9.070862 9.070877 -9.070862l0 0c2.4057465 0 4.7129517 0.9556885 6.4140625 2.6567993c1.7011261 1.7011108 2.6567993 4.0083313 2.6567993 6.4140625l0 0c0 5.0097046 -4.0611725 9.070862 -9.070862 9.070862l0 0c-5.0097046 0 -9.070877 -4.061157 -9.070877 -9.070862z" fill-rule="evenodd"></path><path stroke="#ffffff" stroke-width="2.0" stroke-linejoin="round" stroke-linecap="butt" d="m203.06557 264.66635l0 0c0 -5.0097046 4.0611725 -9.070862 9.070877 -9.070862l0 0c2.4057465 0 4.7129517 0.9556885 6.4140625 2.6567993c1.7011261 1.7011108 2.6567993 4.0083313 2.6567993 6.4140625l0 0c0 5.0097046 -4.0611725 9.070862 -9.070862 9.070862l0 0c-5.0097046 0 -9.070877 -4.061157 -9.070877 -9.070862z" fill-rule="evenodd"></path><path fill="#ffffff" d="m189.11533 229.0912l0 0c0 -5.0097046 4.061157 -9.070862 9.070862 -9.070862l0 0c2.4057465 0 4.7129517 0.9556732 6.4140625 2.6567993c1.7011261 1.7011108 2.6567993 4.008316 2.6567993 6.4140625l0 0c0 5.0097046 -4.061157 9.070862 -9.070862 9.070862l0 0c-5.0097046 0 -9.070862 -4.061157 -9.070862 -9.070862z" fill-rule="evenodd"></path><path stroke="#ffffff" stroke-width="2.0" stroke-linejoin="round" stroke-linecap="butt" d="m189.11533 229.0912l0 0c0 -5.0097046 4.061157 -9.070862 9.070862 -9.070862l0 0c2.4057465 0 4.7129517 0.9556732 6.4140625 2.6567993c1.7011261 1.7011108 2.6567993 4.008316 2.6567993 6.4140625l0 0c0 5.0097046 -4.061157 9.070862 -9.070862 9.070862l0 0c-5.0097046 0 -9.070862 -4.061157 -9.070862 -9.070862z" fill-rule="evenodd"></path><path fill="#ffffff" d="m199.57983 198.4005l0 0c0 -5.0097046 4.0611725 -9.070877 9.070877 -9.070877l0 0c2.4057465 0 4.7129517 0.9556885 6.4140625 2.6567993c1.7011261 1.7011261 2.6567993 4.0083313 2.6567993 6.4140778l0 0c0 5.0097046 -4.061157 9.070862 -9.070862 9.070862l0 0c-5.0097046 0 -9.070877 -4.061157 -9.070877 -9.070862z" fill-rule="evenodd"></path><path stroke="#ffffff" stroke-width="2.0" stroke-linejoin="round" stroke-linecap="butt" d="m199.57983 198.4005l0 0c0 -5.0097046 4.0611725 -9.070877 9.070877 -9.070877l0 0c2.4057465 0 4.7129517 0.9556885 6.4140625 2.6567993c1.7011261 1.7011261 2.6567993 4.0083313 2.6567993 6.4140778l0 0c0 5.0097046 -4.061157 9.070862 -9.070862 9.070862l0 0c-5.0097046 0 -9.070877 -4.061157 -9.070877 -9.070862z" fill-rule="evenodd"></path><path fill="#ffffff" d="m222.59593 233.2763l0 0c0 -5.0097046 4.061157 -9.070877 9.070862 -9.070877l0 0c2.4057465 0 4.7129517 0.9556885 6.4140778 2.6567993c1.7011108 1.7011261 2.656784 4.0083313 2.656784 6.4140778l0 0c0 5.0097046 -4.061157 9.070862 -9.070862 9.070862l0 0c-5.0097046 0 -9.070862 -4.061157 -9.070862 -9.070862z" fill-rule="evenodd"></path><path stroke="#ffffff" stroke-width="2.0" stroke-linejoin="round" stroke-linecap="butt" d="m222.59593 233.2763l0 0c0 -5.0097046 4.061157 -9.070877 9.070862 -9.070877l0 0c2.4057465 0 4.7129517 0.9556885 6.4140778 2.6567993c1.7011108 1.7011261 2.656784 4.0083313 2.656784 6.4140778l0 0c0 5.0097046 -4.061157 9.070862 -9.070862 9.070862l0 0c-5.0097046 0 -9.070862 -4.061157 -9.070862 -9.070862z" fill-rule="evenodd"></path><path fill="#ffffff" d="m236.54619 203.98062l0 0c0 -5.0097046 4.061157 -9.070862 9.070862 -9.070862l0 0c2.4057465 0 4.7129517 0.9556732 6.4140625 2.6567993c1.7011261 1.7011108 2.6567993 4.008316 2.6567993 6.4140625l0 0c0 5.0097046 -4.061157 9.070862 -9.070862 9.070862l0 0c-5.0097046 0 -9.070862 -4.061157 -9.070862 -9.070862z" fill-rule="evenodd"></path><path stroke="#ffffff" stroke-width="2.0" stroke-linejoin="round" stroke-linecap="butt" d="m236.54619 203.98062l0 0c0 -5.0097046 4.061157 -9.070862 9.070862 -9.070862l0 0c2.4057465 0 4.7129517 0.9556732 6.4140625 2.6567993c1.7011261 1.7011108 2.6567993 4.008316 2.6567993 6.4140625l0 0c0 5.0097046 -4.061157 9.070862 -9.070862 9.070862l0 0c-5.0097046 0 -9.070862 -4.061157 -9.070862 -9.070862z" fill-rule="evenodd"></path><path fill="#000000" fill-opacity="0.0" d="m219.49869 64.49869l21.984253 29.480316" fill-rule="evenodd"></path><path stroke="#ffffff" stroke-width="2.0" stroke-linejoin="round" stroke-linecap="butt" d="m219.49869 64.49869l21.984253 29.480316" fill-rule="evenodd"></path><path fill="#000000" fill-opacity="0.0" d="m242.49869 95.49869l-50.771652 -22.803146" fill-rule="evenodd"></path><path stroke="#ffffff" stroke-width="2.0" stroke-linejoin="round" stroke-linecap="butt" d="m242.49869 95.49869l-50.771652 -22.803146" fill-rule="evenodd"></path><path fill="#000000" fill-opacity="0.0" d="m191.0 71.0l29.007874 -6.9921265" fill-rule="evenodd"></path><path stroke="#ffffff" stroke-width="2.0" stroke-linejoin="round" stroke-linecap="butt" d="m191.0 71.0l29.007874 -6.9921265" fill-rule="evenodd"></path><path fill="#000000" fill-opacity="0.0" d="m119.49869 101.49869l69.00787 -29.51181" fill-rule="evenodd"></path><path stroke="#ffffff" stroke-width="2.0" stroke-linejoin="round" stroke-linecap="butt" d="m119.49869 101.49869l69.00787 -29.51181" fill-rule="evenodd"></path><path fill="#000000" fill-opacity="0.0" d="m187.23097 42.682415l2.4881897 30.01575" fill-rule="evenodd"></path><path stroke="#ffffff" stroke-width="2.0" stroke-linejoin="round" stroke-linecap="butt" d="m187.23097 42.682415l2.4881897 30.01575" fill-rule="evenodd"></path><path fill="#000000" fill-opacity="0.0" d="m134.72966 71.18372l-15.496063 31.496063" fill-rule="evenodd"></path><path stroke="#ffffff" stroke-width="2.0" stroke-linejoin="round" stroke-linecap="butt" d="m134.72966 71.18372l-15.496063 31.496063" fill-rule="evenodd"></path><path fill="#000000" fill-opacity="0.0" d="m112.49869 49.0l8.220474 52.692917" fill-rule="evenodd"></path><path stroke="#ffffff" stroke-width="2.0" stroke-linejoin="round" stroke-linecap="butt" d="m112.49869 49.0l8.220474 52.692917" fill-rule="evenodd"></path><path fill="#000000" fill-opacity="0.0" d="m135.49869 69.0l21.007874 -22.48819" fill-rule="evenodd"></path><path stroke="#ffffff" stroke-width="2.0" stroke-linejoin="round" stroke-linecap="butt" d="m135.49869 69.0l21.007874 -22.48819" fill-rule="evenodd"></path><path fill="#000000" fill-opacity="0.0" d="m189.23097 70.68241l-31.496063 -23.49606" fill-rule="evenodd"></path><path stroke="#ffffff" stroke-width="2.0" stroke-linejoin="round" stroke-linecap="butt" d="m189.23097 70.68241l-31.496063 -23.49606" fill-rule="evenodd"></path><path fill="#000000" fill-opacity="0.0" d="m114.49869 146.0l4.503937 -42.992126" fill-rule="evenodd"></path><path stroke="#ffffff" stroke-width="2.0" stroke-linejoin="round" stroke-linecap="butt" d="m114.49869 146.0l4.503937 -42.992126" fill-rule="evenodd"></path><path fill="#000000" fill-opacity="0.0" d="m86.49869 93.49869l34.992126 9.007874" fill-rule="evenodd"></path><path stroke="#ffffff" stroke-width="2.0" stroke-linejoin="round" stroke-linecap="butt" d="m86.49869 93.49869l34.992126 9.007874" fill-rule="evenodd"></path><path fill="#000000" fill-opacity="0.0" d="m86.23097 91.18372l26.992126 -41.98425" fill-rule="evenodd"></path><path stroke="#ffffff" stroke-width="2.0" stroke-linejoin="round" stroke-linecap="butt" d="m86.23097 91.18372l26.992126 -41.98425" fill-rule="evenodd"></path><path fill="#000000" fill-opacity="0.0" d="m113.23097 147.18373l-34.708664 -19.181107" fill-rule="evenodd"></path><path stroke="#ffffff" stroke-width="2.0" stroke-linejoin="round" stroke-linecap="butt" d="m113.23097 147.18373l-34.708664 -19.181107" fill-rule="evenodd"></path><path fill="#000000" fill-opacity="0.0" d="m113.72966 147.18373l-34.771652 18.83464" fill-rule="evenodd"></path><path stroke="#ffffff" stroke-width="2.0" stroke-linejoin="round" stroke-linecap="butt" d="m113.72966 147.18373l-34.771652 18.83464" fill-rule="evenodd"></path><path fill="#000000" fill-opacity="0.0" d="m84.72966 206.68242l30.267715 -12.18898" fill-rule="evenodd"></path><path stroke="#ffffff" stroke-width="2.0" stroke-linejoin="round" stroke-linecap="butt" d="m84.72966 206.68242l30.267715 -12.18898" fill-rule="evenodd"></path><path fill="#000000" fill-opacity="0.0" d="m112.72966 147.68242l3.4960632 47.496063" fill-rule="evenodd"></path><path stroke="#ffffff" stroke-width="2.0" stroke-linejoin="round" stroke-linecap="butt" d="m112.72966 147.68242l3.4960632 47.496063" fill-rule="evenodd"></path><path fill="#000000" fill-opacity="0.0" d="m115.49869 193.49869l11.496063 42.519684" fill-rule="evenodd"></path><path stroke="#ffffff" stroke-width="2.0" stroke-linejoin="round" stroke-linecap="butt" d="m115.49869 193.49869l11.496063 42.519684" fill-rule="evenodd"></path><path fill="#000000" fill-opacity="0.0" d="m124.72966 237.18373l-26.236221 12.314957" fill-rule="evenodd"></path><path stroke="#ffffff" stroke-width="2.0" stroke-linejoin="round" stroke-linecap="butt" d="m124.72966 237.18373l-26.236221 12.314957" fill-rule="evenodd"></path><path fill="#000000" fill-opacity="0.0" d="m99.0 249.49869l34.015747 23.496063" fill-rule="evenodd"></path><path stroke="#ffffff" stroke-width="2.0" stroke-linejoin="round" stroke-linecap="butt" d="m99.0 249.49869l34.015747 23.496063" fill-rule="evenodd"></path><path fill="#000000" fill-opacity="0.0" d="m134.49869 274.4987l41.51181 -0.50393677" fill-rule="evenodd"></path><path stroke="#ffffff" stroke-width="2.0" stroke-linejoin="round" stroke-linecap="butt" d="m134.49869 274.4987l41.51181 -0.50393677" fill-rule="evenodd"></path><path fill="#000000" fill-opacity="0.0" d="m176.0 273.4987l36.97638 -8.976379" fill-rule="evenodd"></path><path stroke="#ffffff" stroke-width="2.0" stroke-linejoin="round" stroke-linecap="butt" d="m176.0 273.4987l36.97638 -8.976379" fill-rule="evenodd"></path><path fill="#000000" fill-opacity="0.0" d="m213.0 265.4987l18.992126 -32.0" fill-rule="evenodd"></path><path stroke="#ffffff" stroke-width="2.0" stroke-linejoin="round" stroke-linecap="butt" d="m213.0 265.4987l18.992126 -32.0" fill-rule="evenodd"></path><path fill="#000000" fill-opacity="0.0" d="m231.72966 233.68242l13.763779 -28.18898" fill-rule="evenodd"></path><path stroke="#ffffff" stroke-width="2.0" stroke-linejoin="round" stroke-linecap="butt" d="m231.72966 233.68242l13.763779 -28.18898" fill-rule="evenodd"></path><path fill="#000000" fill-opacity="0.0" d="m207.0 199.49869l-10.48819 29.007874" fill-rule="evenodd"></path><path stroke="#ffffff" stroke-width="2.0" stroke-linejoin="round" stroke-linecap="butt" d="m207.0 199.49869l-10.48819 29.007874" fill-rule="evenodd"></path><path fill="#000000" fill-opacity="0.0" d="m161.49869 245.0l36.0 -15.496063" fill-rule="evenodd"></path><path stroke="#ffffff" stroke-width="2.0" stroke-linejoin="round" stroke-linecap="butt" d="m161.49869 245.0l36.0 -15.496063" fill-rule="evenodd"></path><path fill="#000000" fill-opacity="0.0" d="m128.49869 238.0l5.7322845 30.173218" fill-rule="evenodd"></path><path stroke="#ffffff" stroke-width="2.0" stroke-linejoin="round" stroke-linecap="butt" d="m128.49869 238.0l5.7322845 30.173218" fill-rule="evenodd"></path><path fill="#000000" fill-opacity="0.0" d="m177.49869 270.4987l53.51181 -37.51181" fill-rule="evenodd"></path><path stroke="#ffffff" stroke-width="2.0" stroke-linejoin="round" stroke-linecap="butt" d="m177.49869 270.4987l53.51181 -37.51181" fill-rule="evenodd"></path><path fill="#000000" fill-opacity="0.0" d="m244.72966 204.68242l-46.015747 24.0" fill-rule="evenodd"></path><path stroke="#ffffff" stroke-width="2.0" stroke-linejoin="round" stroke-linecap="butt" d="m244.72966 204.68242l-46.015747 24.0" fill-rule="evenodd"></path><path fill="#000000" fill-opacity="0.0" d="m209.23097 105.68241l-18.992126 -33.48031" fill-rule="evenodd"></path><path stroke="#ffffff" stroke-width="2.0" stroke-linejoin="round" stroke-linecap="butt" d="m209.23097 105.68241l-18.992126 -33.48031" fill-rule="evenodd"></path><path fill="#000000" fill-opacity="0.0" d="m129.23097 237.18373l46.992126 35.999985" fill-rule="evenodd"></path><path stroke="#ffffff" stroke-width="2.0" stroke-linejoin="round" stroke-linecap="butt" d="m129.23097 237.18373l46.992126 35.999985" fill-rule="evenodd"></path><path fill="#000000" fill-opacity="0.0" d="m177.72966 270.6824l20.503937 -41.00786" fill-rule="evenodd"></path><path stroke="#ffffff" stroke-width="2.0" stroke-linejoin="round" stroke-linecap="butt" d="m177.72966 270.6824l20.503937 -41.00786" fill-rule="evenodd"></path><path fill="#000000" fill-opacity="0.0" d="m79.72966 168.68242l36.0 25.007874" fill-rule="evenodd"></path><path stroke="#ffffff" stroke-width="2.0" stroke-linejoin="round" stroke-linecap="butt" d="m79.72966 168.68242l36.0 25.007874" fill-rule="evenodd"></path><path fill="#000000" fill-opacity="0.0" d="m126.72966 236.68242l35.527557 9.480316" fill-rule="evenodd"></path><path stroke="#ffffff" stroke-width="2.0" stroke-linejoin="round" stroke-linecap="butt" d="m126.72966 236.68242l35.527557 9.480316" fill-rule="evenodd"></path><path fill="#000000" fill-opacity="0.0" d="m85.23097 207.18373l10.992126 41.51181" fill-rule="evenodd"></path><path stroke="#ffffff" stroke-width="2.0" stroke-linejoin="round" stroke-linecap="butt" d="m85.23097 207.18373l10.992126 41.51181" fill-rule="evenodd"></path><path fill="#000000" fill-opacity="0.0" d="m114.23097 49.183727l43.496063 -2.4881897" fill-rule="evenodd"></path><path stroke="#ffffff" stroke-width="2.0" stroke-linejoin="round" stroke-linecap="butt" d="m114.23097 49.183727l43.496063 -2.4881897" fill-rule="evenodd"></path><path fill="#000000" fill-opacity="0.0" d="m79.72966 129.18373l1.5118103 38.015747" fill-rule="evenodd"></path><path stroke="#ffffff" stroke-width="2.0" stroke-linejoin="round" stroke-linecap="butt" d="m79.72966 129.18373l1.5118103 38.015747" fill-rule="evenodd"></path><path fill="#000000" fill-opacity="0.0" d="m162.72966 247.18373l14.015747 25.511795" fill-rule="evenodd"></path><path stroke="#ffffff" stroke-width="2.0" stroke-linejoin="round" stroke-linecap="butt" d="m162.72966 247.18373l14.015747 25.511795" fill-rule="evenodd"></path><path fill="#000000" fill-opacity="0.0" d="m78.79265 126.09974l42.4252 -23.90551" fill-rule="evenodd"></path><path stroke="#ffffff" stroke-width="2.0" stroke-linejoin="round" stroke-linecap="butt" d="m78.79265 126.09974l42.4252 -23.90551" fill-rule="evenodd"></path></g></svg>

