<?xml version="1.0" standalone="yes"?>

<svg version="1.1" viewBox="0.0 0.0 933.4803149606299 594.0341207349081" fill="none" stroke="none" stroke-linecap="square" stroke-miterlimit="10" xmlns="http://www.w3.org/2000/svg" xmlns:xlink="http://www.w3.org/1999/xlink"><clipPath id="p.0"><path d="m0 0l933.4803 0l0 594.0341l-933.4803 0l0 -594.0341z" clip-rule="nonzero"></path></clipPath><g clip-path="url(#p.0)"><path fill="#000000" fill-opacity="0.0" d="m0 0l933.4803 0l0 594.0341l-933.4803 0z" fill-rule="evenodd"></path><path fill="#404040" d="m75.42522 364.5538l770.48816 0l0 147.8425l-770.48816 0z" fill-rule="evenodd"></path><path fill="#000000" fill-opacity="0.0" d="m24.278767 16.362206l566.86615 0l0 243.24408l-566.86615 0z" fill-rule="evenodd"></path><path fill="#404040" d="m77.888145 82.20925q20.453125 0 31.71875 11.796875q11.28125 11.796875 11.28125 33.453125l0 26.234367q0 20.875 -11.296875 32.34375q-11.28125 11.46875 -32.5 11.46875q-13.718754 0 -31.812504 -1.171875l0 -113.34374q17.65625 -0.78125 32.60938 -0.78125zm-0.796875 18.171875q-4.90625 0 -11.5625 0.21875l0 77.92187q6.296875 0.640625 11.5625 0.640625q10.953125 0 17.25 -6.15625q6.296875 -6.15625 6.296875 -18.1875l0 -28.328117q0 -13.21875 -6.09375 -19.65625q-6.09375 -6.453125 -17.453125 -6.453125zm79.79754 -16.25l0 111.45312l-20.25 0l0 -111.45312l20.25 0zm53.959396 -1.921875q6.140625 0 13.984375 1.0625q7.84375 1.0625 17.09375 2.90625l-0.5 18.734375q-21.625 -4.203125 -30.578125 -4.203125q-9.734375 0 -13.453125 3.46875q-3.703125 3.453125 -3.703125 12.234375l0 46.406242q0 8.828125 3.71875 12.4375q3.734375 3.59375 13.4375 3.59375q6.890625 0 15.390625 -1.65625l0 -29.296875l-20.0 0l0 -19.453125l40.25 0l0 62.265625q-22.015625 6.796875 -35.640625 6.796875q-19.78125 0 -28.59375 -8.8125q-8.8125 -8.828125 -8.8125 -26.84375l0 -43.999992q0 -18.375 8.984375 -27.0q9.0 -8.640625 28.421875 -8.640625zm72.440704 1.921875l0 111.45312l-20.25003 0l0 -111.45312l20.25003 0zm91.20938 0l0 18.96875l-30.40625 0l0 92.48437l-20.25 0l0 -92.48437l-30.40625 0l0 -18.96875l81.0625 0zm54.796906 0l34.21875 111.45312l-21.75 0l-6.875 -24.3125l-33.53125 0l-6.875 24.3125l-20.9375 0l34.03125 -111.45312l21.71875 0zm-11.109375 27.953125l-11.5625 40.359367l23.015625 0l-11.453125 -40.359367zm71.82318 -27.953125l0 92.79687l41.609344 0l0 18.65625l-61.859344 0l0 -111.45312l20.25 0z" fill-rule="nonzero"></path><path fill="#000000" fill-opacity="0.0" d="m77.92975 183.2866l386.64566 0l0 181.25984l-386.64566 0z" fill-rule="evenodd"></path><path fill="#404040" d="m119.17975 220.0634l0 92.79686l41.609375 0l0 18.65625l-61.859375 0l0 -111.45311l20.25 0zm72.000046 0l0 111.45311l-20.25 0l0 -111.45311l20.25 0zm79.2094 0l0 18.96875l-41.609375 0l0 26.468735l31.359375 0l0 18.8125l-31.359375 0l0 47.203125l-20.25 0l0 -111.45311l61.859375 0zm73.60004 0l0 18.96875l-41.609375 0l0 26.468735l38.40625 0l0 18.8125l-38.40625 0l0 28.234375l41.609375 0l0 18.96875l-61.859375 0l0 -111.45311l61.859375 0z" fill-rule="nonzero"></path><path fill="#000000" fill-opacity="0.0" d="m73.68266 344.9444l788.6614 0l0 181.25983l-788.6614 0z" fill-rule="evenodd"></path><path fill="#ffffff" d="m131.29204 379.79932q6.5 0 13.875 1.21875q7.390625 1.21875 11.609375 1.734375l-0.5 18.90625q-17.609375 -3.203125 -24.984375 -3.203125q-9.5625 0 -13.359375 3.546875q-3.796875 3.53125 -3.796875 12.484375l0 45.765625q0 8.9375 3.703125 12.40625q3.71875 3.453125 13.453125 3.453125q7.375 0 25.0 -3.1875l0.484375 19.21875q-4.21875 0.515625 -11.609375 1.734375q-7.375 1.21875 -13.875 1.21875q-19.78125 0 -28.59375 -8.8125q-8.8125 -8.828125 -8.8125 -26.84375l0 -44.0q0 -18.015625 8.8125 -26.828125q8.8125 -8.8125 28.59375 -8.8125zm76.95691 0q19.359375 0 28.78125 9.96875q9.421875 9.953125 9.421875 27.765625l0 39.828125q0 17.8125 -9.421875 27.78125q-9.421875 9.953125 -28.78125 9.953125q-19.359375 0 -28.78125 -9.953125q-9.421875 -9.96875 -9.421875 -27.78125l0 -39.828125q0 -17.8125 9.421875 -27.765625q9.421875 -9.96875 28.78125 -9.96875zm0 18.65625q-9.203125 0 -13.578125 4.3125q-4.375 4.3125 -4.375 13.15625l0 42.875q0 8.875 4.375 13.265625q4.390625 4.375 13.578125 4.375q9.1875 0 13.5625 -4.375q4.390625 -4.390625 4.390625 -13.265625l0 -42.71875q0 -8.859375 -4.390625 -13.234375q-4.375 -4.390625 -13.5625 -4.390625zm75.0038 -16.734375l0 92.796875l41.609375 0l0 18.65625l-61.859375 0l0 -111.453125l20.25 0zm72.00006 0l0 92.796875l41.609375 0l0 18.65625l-61.859375 0l0 -111.453125l20.25 0zm113.609436 0l0 18.96875l-41.609375 0l0 26.46875l38.40625 0l0 18.8125l-38.40625 0l0 28.234375l41.609375 0l0 18.96875l-61.859375 0l0 -111.453125l61.859375 0zm52.350037 -1.921875q6.5 0 13.875 1.21875q7.390625 1.21875 11.609375 1.734375l-0.5 18.90625q-17.609375 -3.203125 -24.984375 -3.203125q-9.5625 0 -13.359375 3.546875q-3.796875 3.53125 -3.796875 12.484375l0 45.765625q0 8.9375 3.703125 12.40625q3.71875 3.453125 13.453125 3.453125q7.375 0 25.0 -3.1875l0.484375 19.21875q-4.21875 0.515625 -11.609375 1.734375q-7.375 1.21875 -13.875 1.21875q-19.78125 0 -28.59375 -8.8125q-8.8125 -8.828125 -8.8125 -26.84375l0 -44.0q0 -18.015625 8.8125 -26.828125q8.8125 -8.8125 28.59375 -8.8125zm113.410034 1.921875l0 18.96875l-30.40625 0l0 92.484375l-20.25 0l0 -92.484375l-30.40625 0l0 -18.96875l81.0625 0zm30.390686 0l0 111.453125l-20.25 0l0 -111.453125l20.25 0zm95.22504 0l-33.515625 111.453125l-22.890625 0l-32.5 -111.453125l21.390625 0l22.625 82.625l23.515625 -82.625l21.375 0zm68.14441 0l0 18.96875l-41.609375 0l0 26.46875l38.40625 0l0 18.8125l-38.40625 0l0 28.234375l41.609375 0l0 18.96875l-61.859375 0l0 -111.453125l61.859375 0z" fill-rule="nonzero"></path></g></svg>

